REM DIRINDEX 1\2,1\3,1\4
REM DIRNAME cjc038,folder01,folder02,folder03
TITLE ""
FILE "DISC2Track10.mp3" MP3
  TRACK 01 AUDIO
    TITLE "4:cjc038_1270"
    INDEX 01 00:00:00
  TRACK 02 AUDIO
    TITLE "0:"
    INDEX 01 00:02:34
  TRACK 03 AUDIO
    TITLE "2:cjc038_1271"
    INDEX 01 00:04:05
  TRACK 04 AUDIO
    TITLE "0:"
    INDEX 01 00:06:55
  TRACK 05 AUDIO
    TITLE "3:cjc038_1272"
    INDEX 01 00:06:65
  TRACK 06 AUDIO
    TITLE "0:"
    INDEX 01 00:09:40
  TRACK 07 AUDIO
    TITLE "2:cjc038_1273"
    INDEX 01 00:10:14
  TRACK 08 AUDIO
    TITLE "0:"
    INDEX 01 00:13:02
  TRACK 09 AUDIO
    TITLE "3:cjc038_1274"
    INDEX 01 00:13:10
  TRACK 10 AUDIO
    TITLE "0:"
    INDEX 01 00:15:58
  TRACK 11 AUDIO
    TITLE "2:cjc038_1275"
    INDEX 01 00:17:43
  TRACK 12 AUDIO
    TITLE "0:"
    INDEX 01 00:20:00
  TRACK 13 AUDIO
    TITLE "3:cjc038_1276"
    INDEX 01 00:20:06
  TRACK 14 AUDIO
    TITLE "0:"
    INDEX 01 00:22:19
  TRACK 15 AUDIO
    TITLE "2:cjc038_1277"
    INDEX 01 00:23:14
  TRACK 16 AUDIO
    TITLE "0:"
    INDEX 01 00:26:52
  TRACK 17 AUDIO
    TITLE "3:cjc038_1278"
    INDEX 01 00:26:60
  TRACK 18 AUDIO
    TITLE "0:"
    INDEX 01 00:30:20
  TRACK 19 AUDIO
    TITLE "2:cjc038_1279"
    INDEX 01 00:30:69
  TRACK 20 AUDIO
    TITLE "0:"
    INDEX 01 00:35:64
  TRACK 21 AUDIO
    TITLE "3:cjc038_1280"
    INDEX 01 00:35:72
  TRACK 22 AUDIO
    TITLE "0:"
    INDEX 01 00:40:64
  TRACK 23 AUDIO
    TITLE "2:cjc038_1281"
    INDEX 01 00:41:40
  TRACK 24 AUDIO
    TITLE "0:"
    INDEX 01 00:45:51
  TRACK 25 AUDIO
    TITLE "3:cjc038_1282"
    INDEX 01 00:45:59
  TRACK 26 AUDIO
    TITLE "0:"
    INDEX 01 00:49:63
  TRACK 27 AUDIO
    TITLE "2:cjc038_1283"
    INDEX 01 00:50:39
  TRACK 28 AUDIO
    TITLE "0:"
    INDEX 01 00:55:36
  TRACK 29 AUDIO
    TITLE "3:cjc038_1284"
    INDEX 01 00:55:46
  TRACK 30 AUDIO
    TITLE "0:"
    INDEX 01 01:00:29
  TRACK 31 AUDIO
    TITLE "2:cjc038_1285"
    INDEX 01 01:01:15
  TRACK 32 AUDIO
    TITLE "0:"
    INDEX 01 01:04:03
  TRACK 33 AUDIO
    TITLE "3:cjc038_1286"
    INDEX 01 01:04:11
  TRACK 34 AUDIO
    TITLE "0:"
    INDEX 01 01:06:59
  TRACK 35 AUDIO
    TITLE "2:cjc038_1287"
    INDEX 01 01:07:45
  TRACK 36 AUDIO
    TITLE "0:"
    INDEX 01 01:10:49
  TRACK 37 AUDIO
    TITLE "3:cjc038_1288"
    INDEX 01 01:10:59
  TRACK 38 AUDIO
    TITLE "0:"
    INDEX 01 01:13:55
  TRACK 39 AUDIO
    TITLE "2:cjc038_1289"
    INDEX 01 01:14:35
  TRACK 40 AUDIO
    TITLE "0:"
    INDEX 01 01:16:67
  TRACK 41 AUDIO
    TITLE "3:cjc038_1290"
    INDEX 01 01:16:73
  TRACK 42 AUDIO
    TITLE "0:"
    INDEX 01 01:19:15
  TRACK 43 AUDIO
    TITLE "2:cjc038_1291"
    INDEX 01 01:19:74
  TRACK 44 AUDIO
    TITLE "0:"
    INDEX 01 01:22:46
  TRACK 45 AUDIO
    TITLE "3:cjc038_1292"
    INDEX 01 01:22:58
  TRACK 46 AUDIO
    TITLE "0:"
    INDEX 01 01:25:15
  TRACK 47 AUDIO
    TITLE "2:cjc038_1293"
    INDEX 01 01:25:74
  TRACK 48 AUDIO
    TITLE "0:"
    INDEX 01 01:29:15
  TRACK 49 AUDIO
    TITLE "3:cjc038_1294"
    INDEX 01 01:29:21
  TRACK 50 AUDIO
    TITLE "0:"
    INDEX 01 01:32:33
  TRACK 51 AUDIO
    TITLE "2:cjc038_1295"
    INDEX 01 01:34:12
  TRACK 52 AUDIO
    TITLE "0:"
    INDEX 01 01:37:01
  TRACK 53 AUDIO
    TITLE "3:cjc038_1296"
    INDEX 01 01:37:09
  TRACK 54 AUDIO
    TITLE "0:"
    INDEX 01 01:39:61
  TRACK 55 AUDIO
    TITLE "2:cjc038_1297"
    INDEX 01 01:40:46
  TRACK 56 AUDIO
    TITLE "0:"
    INDEX 01 01:43:09
  TRACK 57 AUDIO
    TITLE "3:cjc038_1298"
    INDEX 01 01:43:17
  TRACK 58 AUDIO
    TITLE "0:"
    INDEX 01 01:45:45
  TRACK 59 AUDIO
    TITLE "2:cjc038_1299"
    INDEX 01 01:46:23
  TRACK 60 AUDIO
    TITLE "0:"
    INDEX 01 01:49:35
  TRACK 61 AUDIO
    TITLE "3:cjc038_1300"
    INDEX 01 01:49:39
  TRACK 62 AUDIO
    TITLE "0:"
    INDEX 01 01:52:34
